<svg width="169" height="97" fill="none" xmlns="http://www.w3.org/2000/svg"><path d="M110 73l-.223-.448L110 73zM.684 92.612a.5.5 0 0 0-.072.704l2.843 3.489a.5.5 0 1 0 .775-.632l-2.527-3.101 3.101-2.527a.5.5 0 1 0-.631-.775L.684 92.612zM167.572 1l-.481-.138v.001l-.002.006-.008.027-.031.106a70.699 70.699 0 0 1-.662 2.052 117.123 117.123 0 0 1-2.229 5.996 147.584 147.584 0 0 1-9.679 19.659c-8.991 15.275-23.322 33.186-44.703 43.843l.446.895c21.619-10.776 36.074-28.865 45.119-44.231 4.524-7.686 7.7-14.7 9.745-19.794a117.296 117.296 0 0 0 2.248-6.047c.243-.716.422-1.274.54-1.653l.133-.433a4.42 4.42 0 0 1 .033-.111l.008-.03a.038.038 0 0 1 .003-.007V1.14l-.48-.139zm-57.795 71.552c-25.84 12.88-53.022 17.87-73.756 19.638-10.365.884-19.112.961-25.267.818a171.568 171.568 0 0 1-7.164-.307 102.155 102.155 0 0 1-2.378-.183l-.122-.011a3.506 3.506 0 0 1-.03-.004h-.009L1 93l-.05.498h.011l.032.004.126.012.494.044c.434.036 1.077.086 1.912.141 1.67.11 4.114.237 7.206.309 6.184.144 14.969.066 25.375-.822 20.809-1.773 48.126-6.783 74.117-19.739l-.446-.895z" fill="#DE0000"/></svg>